<svg width="32" height="32" viewBox="0 0 32 32" fill="none" xmlns="http://www.w3.org/2000/svg">
  <rect width="32" height="32" rx="8" fill="#6366F1" />
  <path d="M6 6C6 4.89543 6.89543 4 8 4H24C25.1046 4 26 4.89543 26 6V26C26 27.1046 25.1046 28 24 28H8C6.89543 28 6 27.1046 6 26V6Z" fill="white" />

  <!-- Grid -->
  <rect x="8" y="8" width="8" height="8" fill="#F3F4F6" />
  <rect x="16" y="8" width="8" height="8" fill="white" />
  <rect x="8" y="16" width="8" height="8" fill="white" />
  <rect x="16" y="16" width="8" height="8" fill="#F3F4F6" />

  <!-- Snake -->
  <path d="M22 10C23.1046 10 24 10.8954 24 12V18C24 19.1046 23.1046 20 22 20H18C16.8954 20 16 19.1046 16 18V16" stroke="#EF4444" stroke-width="2" stroke-linecap="round" />
  <circle cx="14" cy="14" r="2" fill="#EF4444" />

  <!-- Ladder -->
  <line x1="10" y1="22" x2="10" y2="12" stroke="#EAB308" stroke-width="2" stroke-linecap="round" />
  <line x1="14" y1="22" x2="14" y2="12" stroke="#EAB308" stroke-width="2" stroke-linecap="round" />
  <line x1="10" y1="18" x2="14" y2="18" stroke="#EAB308" stroke-width="1.5" stroke-linecap="round" />
  <line x1="10" y1="15" x2="14" y2="15" stroke="#EAB308" stroke-width="1.5" stroke-linecap="round" />

  <!-- Dice -->
  <rect x="19" y="22" width="5" height="5" rx="1" fill="#6366F1" />
  <circle cx="21.5" cy="24.5" r="0.75" fill="white" />
  <circle cx="21.5" cy="24.5" r="0.75" fill="white" />
</svg>
